<svg width="14" height="17" viewBox="0 0 14 17" fill="none" xmlns="http://www.w3.org/2000/svg">
<path d="M9.49731 7.22867C9.53806 7.27565 9.57038 7.33146 9.59244 7.39291C9.61449 7.45435 9.62585 7.52023 9.62585 7.58675C9.62585 7.65328 9.61449 7.71915 9.59244 7.7806C9.57038 7.84205 9.53806 7.89786 9.49731 7.94484L6.87231 10.9795C6.83167 11.0266 6.7834 11.0639 6.73024 11.0894C6.67709 11.1149 6.62011 11.1281 6.56256 11.1281C6.50502 11.1281 6.44804 11.1149 6.39489 11.0894C6.34173 11.0639 6.29345 11.0266 6.25281 10.9795L4.94031 9.46216C4.89964 9.41513 4.86737 9.35931 4.84536 9.29787C4.82334 9.23643 4.81201 9.17057 4.81201 9.10407C4.81201 9.03757 4.82334 8.97172 4.84536 8.91028C4.86737 8.84884 4.89964 8.79301 4.94031 8.74598C5.02247 8.65101 5.13389 8.59766 5.25006 8.59766C5.30759 8.59766 5.36455 8.61076 5.4177 8.63621C5.47085 8.66166 5.51914 8.69896 5.55981 8.74598L6.56256 9.90623L8.87781 7.22867C8.91845 7.18157 8.96673 7.1442 9.01989 7.1187C9.07304 7.0932 9.13002 7.08008 9.18756 7.08008C9.24511 7.08008 9.30209 7.0932 9.35524 7.1187C9.4084 7.1442 9.45667 7.18157 9.49731 7.22867Z" fill="#FF0143"/>
<path d="M3.0625 0C3.17853 0 3.28981 0.0532866 3.37186 0.148137C3.45391 0.242988 3.5 0.371633 3.5 0.505772V1.01154H10.5V0.505772C10.5 0.371633 10.5461 0.242988 10.6281 0.148137C10.7102 0.0532866 10.8215 0 10.9375 0C11.0535 0 11.1648 0.0532866 11.2469 0.148137C11.3289 0.242988 11.375 0.371633 11.375 0.505772V1.01154H12.25C12.7141 1.01154 13.1592 1.22469 13.4874 1.60409C13.8156 1.9835 14 2.49808 14 3.03463V14.1616C14 14.6982 13.8156 15.2128 13.4874 15.5922C13.1592 15.9716 12.7141 16.1847 12.25 16.1847H1.75C1.28587 16.1847 0.840752 15.9716 0.512563 15.5922C0.184374 15.2128 0 14.6982 0 14.1616V3.03463C0 2.49808 0.184374 1.9835 0.512563 1.60409C0.840752 1.22469 1.28587 1.01154 1.75 1.01154H2.625V0.505772C2.625 0.371633 2.67109 0.242988 2.75314 0.148137C2.83519 0.0532866 2.94647 0 3.0625 0V0ZM0.875 4.04618V14.1616C0.875 14.4299 0.967187 14.6872 1.13128 14.8769C1.29538 15.0666 1.51794 15.1732 1.75 15.1732H12.25C12.4821 15.1732 12.7046 15.0666 12.8687 14.8769C13.0328 14.6872 13.125 14.4299 13.125 14.1616V4.04618H0.875Z" fill="#FF0143"/>
</svg>
