<svg width="18" height="18" viewBox="0 0 18 18" fill="none" xmlns="http://www.w3.org/2000/svg">
<g clip-path="url(#clip0_1400_136)">
<path d="M7.15187 0.560364C3.51323 0.560422 0.563535 3.51011 0.563477 7.14876C0.563397 9.35931 1.6719 11.4226 3.51517 12.6428L2.99155 13.252C2.55684 13.7579 2.43349 14.3966 2.7611 14.7242C3.10311 15.0662 3.72738 14.9285 4.23328 14.4938C5.10566 13.6214 6.55827 13.7364 7.15187 13.7375C10.7908 13.7376 13.7407 10.7877 13.7406 7.14876C13.7405 3.50999 10.7906 0.560242 7.15187 0.560364Z" fill="#FF005D"/>
<path d="M13.3554 8.54662C15.6094 8.54665 17.4366 10.3739 17.4367 12.6279C17.4367 13.9973 16.75 15.2754 15.6082 16.0313L15.9326 16.4087C16.2019 16.7221 16.2783 17.1177 16.0753 17.3206C15.8635 17.5325 15.4768 17.4472 15.1634 17.1779C14.623 16.6375 13.7231 16.7087 13.3554 16.7094C11.1012 16.7094 9.27385 14.8821 9.27393 12.6279C9.27396 10.3738 11.1013 8.54654 13.3554 8.54662Z" fill="#59D96B"/>
<path d="M5.0161 4.10664C4.46469 4.10664 3.91324 4.31786 3.49071 4.74038C2.64567 5.58542 2.64567 6.9461 3.49071 7.79115L6.3996 10.6998C6.52252 10.8228 6.73157 10.9948 7.10958 10.9948C7.48759 10.9948 7.67158 10.8472 7.81897 10.6998L10.7279 7.79115C11.5729 6.9461 11.5729 5.58542 10.7279 4.74038C9.88281 3.89534 8.52213 3.89534 7.67709 4.74038L7.10919 5.30828L6.54148 4.74038C6.11896 4.31786 5.56752 4.10664 5.0161 4.10664Z" fill="white"/>
<path d="M14.938 10.8538L12.947 12.3242L12.0255 11.9234C11.4359 11.6219 10.9006 12.1099 11.2441 12.7048L12.2954 14.2768C12.5909 14.7058 13.2795 14.6847 13.5976 14.2759L15.7185 11.6343C16.1388 11.0651 15.5101 10.4594 14.938 10.8538Z" fill="#DAEEFF"/>
</g>
<defs>
<clipPath id="clip0_1400_136">
<rect width="18" height="18" fill="white"/>
</clipPath>
</defs>
</svg>
