<svg width="15" height="12" viewBox="0 0 15 12" fill="none" xmlns="http://www.w3.org/2000/svg">
<path d="M14.5995 0.440484C14.7264 0.579759 14.8272 0.745211 14.8959 0.927365C14.9646 1.10952 15 1.3048 15 1.50201C15 1.69922 14.9646 1.8945 14.8959 2.07665C14.8272 2.25881 14.7264 2.42426 14.5995 2.56354L6.41994 11.5595C6.29331 11.6991 6.14287 11.8099 5.97725 11.8855C5.81163 11.9611 5.63407 12 5.45476 12C5.27544 12 5.09789 11.9611 4.93226 11.8855C4.76664 11.8099 4.6162 11.6991 4.48957 11.5595L0.399794 7.06153C0.273044 6.92212 0.1725 6.75663 0.103903 6.57449C0.0353064 6.39236 0 6.19714 0 6C0 5.80286 0.0353064 5.60764 0.103903 5.42551C0.1725 5.24337 0.273044 5.07788 0.399794 4.93847C0.655777 4.65694 1.00297 4.49878 1.36498 4.49878C1.54423 4.49878 1.72173 4.53761 1.88734 4.61305C2.05294 4.68849 2.20342 4.79907 2.33017 4.93847L5.45476 8.37794L12.6691 0.440484C12.7958 0.300856 12.9462 0.190077 13.1118 0.114491C13.2774 0.0389058 13.455 0 13.6343 0C13.8136 0 13.9912 0.0389058 14.1568 0.114491C14.3224 0.190077 14.4729 0.300856 14.5995 0.440484V0.440484Z" fill="#FF0143"/>
</svg>
