<svg width="103" height="103" viewBox="0 0 103 103" fill="none" xmlns="http://www.w3.org/2000/svg">
<g clip-path="url(#clip0_1403_14)">
<path d="M51.5 103C79.9427 103 103 79.9427 103 51.5C103 23.0573 79.9427 0 51.5 0C23.0573 0 0 23.0573 0 51.5C0 79.9427 23.0573 103 51.5 103Z" fill="#29A71A"/>
<path d="M74.2069 28.7932C68.8488 23.3816 61.7332 20.0628 54.1436 19.4355C46.554 18.8083 38.9901 20.9137 32.8162 25.3722C26.6423 29.8307 22.2648 36.3486 20.4734 43.7504C18.6819 51.1521 19.5945 58.9504 23.0464 65.7386L19.6579 82.1893C19.6227 82.3531 19.6217 82.5223 19.655 82.6864C19.6882 82.8506 19.7549 83.0061 19.851 83.1432C19.9918 83.3514 20.1927 83.5117 20.4269 83.6027C20.6611 83.6936 20.9176 83.711 21.1619 83.6524L37.2849 79.8309C44.054 83.1954 51.7973 84.0492 59.1368 82.2405C66.4764 80.4317 72.9362 76.0777 77.3669 69.9532C81.7975 63.8286 83.9116 56.3308 83.333 48.7939C82.7544 41.2569 79.5205 34.1696 74.2069 28.7932ZM69.1798 68.9164C65.4725 72.6132 60.6987 75.0536 55.5309 75.8935C50.3632 76.7335 45.0622 75.9306 40.3749 73.5982L38.1277 72.4863L28.2432 74.8272L28.2724 74.7043L30.3207 64.7554L29.2205 62.5842C26.8255 57.8806 25.9807 52.5396 26.807 47.3264C27.6332 42.1132 30.0883 37.2953 33.8204 33.5628C38.5099 28.8748 44.8692 26.2412 51.5001 26.2412C58.131 26.2412 64.4904 28.8748 69.1798 33.5628C69.2198 33.6086 69.2628 33.6516 69.3086 33.6915C73.9399 38.3916 76.5253 44.732 76.5012 51.3305C76.4771 57.9289 73.8454 64.2503 69.1798 68.9164Z" fill="white"/>
<path d="M68.302 61.6186C67.0905 63.5264 65.1768 65.8615 62.7716 66.4408C58.5579 67.4591 52.0912 66.4759 44.0443 58.9733L43.9448 58.8856C36.8694 52.3252 35.0318 46.865 35.4766 42.5343C35.7224 40.0763 37.7707 37.8525 39.4971 36.4011C39.77 36.1682 40.0937 36.0023 40.4422 35.9168C40.7907 35.8313 41.1544 35.8286 41.5041 35.9087C41.8539 35.9889 42.18 36.1499 42.4565 36.3786C42.7329 36.6074 42.952 36.8977 43.0962 37.2263L45.7005 43.0786C45.8697 43.458 45.9324 43.8764 45.8819 44.2888C45.8314 44.7012 45.6695 45.0921 45.4137 45.4195L44.097 47.1283C43.8144 47.4812 43.6439 47.9105 43.6074 48.3611C43.5709 48.8116 43.6701 49.2628 43.8921 49.6565C44.6295 50.9499 46.3969 52.8519 48.3574 54.6134C50.5579 56.6032 52.9983 58.4232 54.5433 59.0436C54.9567 59.2125 55.4112 59.2537 55.8483 59.1619C56.2853 59.0701 56.6848 58.8495 56.9954 58.5286L58.5228 56.9894C58.8175 56.6988 59.1841 56.4915 59.585 56.3887C59.986 56.2859 60.407 56.2912 60.8052 56.4042L66.9911 58.1599C67.3323 58.2645 67.6451 58.4459 67.9055 58.6899C68.1659 58.934 68.367 59.2344 68.4935 59.5682C68.62 59.9019 68.6685 60.2602 68.6353 60.6156C68.6021 60.9709 68.4881 61.314 68.302 61.6186Z" fill="white"/>
</g>
<defs>
<clipPath id="clip0_1403_14">
<rect width="103" height="103" fill="white"/>
</clipPath>
</defs>
</svg>
